HIERARCHY
ROOT mixamorig:Hips
{
	OFFSET 0.00 0.00 0.00
	CHANNELS 6 Xposition Yposition Zposition Zrotation Yrotation Xrotation
	JOINT mixamorig:Spine
	{
		OFFSET	-0.0379	9.4905	-1.3921
		CHANNELS 3 Zrotation Yrotation Xrotation
		JOINT mixamorig:Spine1
		{
			OFFSET	-0.0442	11.0722	-1.6241
			CHANNELS 3 Zrotation Yrotation Xrotation
			JOINT mixamorig:Spine2
			{
				OFFSET	-0.0506	12.6540	-1.8561
				CHANNELS 3 Zrotation Yrotation Xrotation
				JOINT mixamorig:Neck
				{
					OFFSET	-0.0569	14.2358	-2.0881
					CHANNELS 3 Zrotation Yrotation Xrotation
					JOINT mixamorig:Head
					{
						OFFSET	0.0000	3.2802	0.3133
						CHANNELS 3 Zrotation Yrotation Xrotation
						End Site
						{
							OFFSET 0.0000 25.6535 2.4505
						}
					}
				}
				JOINT mixamorig:LeftShoulder
				{
					OFFSET	6.7288	11.7566	-2.0585
					CHANNELS 3 Zrotation Yrotation Xrotation
					JOINT mixamorig:LeftArm
					{
						OFFSET	13.5713	-4.9583	0.0593
						CHANNELS 3 Zrotation Yrotation Xrotation
						JOINT mixamorig:LeftForeArm
						{
							OFFSET	17.2582	-15.4446	-0.1304
							CHANNELS 3 Zrotation Yrotation Xrotation
							JOINT mixamorig:LeftHand
							{
								OFFSET	19.1747	-11.8144	8.4973
								CHANNELS 3 Zrotation Yrotation Xrotation
								JOINT mixamorig:LeftHandThumb1
								{
									OFFSET	1.4152	-3.1459	3.3921
									CHANNELS 3 Zrotation Yrotation Xrotation
									JOINT mixamorig:LeftHandThumb2
									{
										OFFSET	1.1321	-2.5167	2.7137
										CHANNELS 3 Zrotation Yrotation Xrotation
										JOINT mixamorig:LeftHandThumb3
										{
											OFFSET	0.8208	-4.0642	2.2357
											CHANNELS 3 Zrotation Yrotation Xrotation
											End Site
											{
												OFFSET 1.6034 -3.3436 0.9597
											}
										}
									}
								}
								JOINT mixamorig:LeftHandIndex1
								{
									OFFSET	9.2608	-6.0923	10.0311
									CHANNELS 3 Zrotation Yrotation Xrotation
									JOINT mixamorig:LeftHandIndex2
									{
										OFFSET	2.1918	-1.7186	1.6722
										CHANNELS 3 Zrotation Yrotation Xrotation
										JOINT mixamorig:LeftHandIndex3
										{
											OFFSET	1.7360	-1.7660	0.9701
											CHANNELS 3 Zrotation Yrotation Xrotation
											End Site
											{
												OFFSET 2.0655 -2.6048 1.4660
											}
										}
									}
								}
								JOINT mixamorig:LeftHandMiddle1
								{
									OFFSET	10.5922	-6.2980	7.4687
									CHANNELS 3 Zrotation Yrotation Xrotation
									JOINT mixamorig:LeftHandMiddle2
									{
										OFFSET	2.5325	-1.7582	1.0567
										CHANNELS 3 Zrotation Yrotation Xrotation
										JOINT mixamorig:LeftHandMiddle3
										{
											OFFSET	1.4253	-2.1413	0.5937
											CHANNELS 3 Zrotation Yrotation Xrotation
											End Site
											{
												OFFSET 1.4359 -3.3336 0.5679
											}
										}
									}
								}
								JOINT mixamorig:LeftHandRing1
								{
									OFFSET	11.3894	-6.2561	4.0229
									CHANNELS 3 Zrotation Yrotation Xrotation
									JOINT mixamorig:LeftHandRing2
									{
										OFFSET	2.1076	-1.6023	0.6135
										CHANNELS 3 Zrotation Yrotation Xrotation
										JOINT mixamorig:LeftHandRing3
										{
											OFFSET	0.7822	-1.9700	0.2509
											CHANNELS 3 Zrotation Yrotation Xrotation
											End Site
											{
												OFFSET 0.4716 -2.6865 0.5721
											}
										}
									}
								}
								JOINT mixamorig:LeftHandPinky1
								{
									OFFSET	10.9033	-6.8431	1.2170
									CHANNELS 3 Zrotation Yrotation Xrotation
									JOINT mixamorig:LeftHandPinky2
									{
										OFFSET	1.0521	-1.1494	-0.0577
										CHANNELS 3 Zrotation Yrotation Xrotation
										JOINT mixamorig:LeftHandPinky3
										{
											OFFSET	0.2801	-1.5065	0.1598
											CHANNELS 3 Zrotation Yrotation Xrotation
											End Site
											{
												OFFSET 0.6358 -1.4513 0.5238
											}
										}
									}
								}
							}
						}
					}
				}
				JOINT mixamorig:RightShoulder
				{
					OFFSET	-6.8238	11.7566	-2.1177
					CHANNELS 3 Zrotation Yrotation Xrotation
					JOINT mixamorig:RightArm
					{
						OFFSET	-13.5338	-4.9583	-0.0593
						CHANNELS 3 Zrotation Yrotation Xrotation
						JOINT mixamorig:RightForeArm
						{
							OFFSET	-17.2582	-15.4446	-0.1126
							CHANNELS 3 Zrotation Yrotation Xrotation
							JOINT mixamorig:RightHand
							{
								OFFSET	-19.1747	-11.8143	8.6982
								CHANNELS 3 Zrotation Yrotation Xrotation
								JOINT mixamorig:RightHandThumb1
								{
									OFFSET	-1.4504	-3.2286	3.3657
									CHANNELS 3 Zrotation Yrotation Xrotation
									JOINT mixamorig:RightHandThumb2
									{
										OFFSET	-1.1603	-2.5829	2.6926
										CHANNELS 3 Zrotation Yrotation Xrotation
										JOINT mixamorig:RightHandThumb3
										{
											OFFSET	-0.8066	-4.0900	2.2727
											CHANNELS 3 Zrotation Yrotation Xrotation
											End Site
											{
												OFFSET -1.3619 -3.3561 1.1081
											}
										}
									}
								}
								JOINT mixamorig:RightHandIndex1
								{
									OFFSET	-9.3119	-5.9977	10.0611
									CHANNELS 3 Zrotation Yrotation Xrotation
									JOINT mixamorig:RightHandIndex2
									{
										OFFSET	-2.1048	-1.8288	1.6029
										CHANNELS 3 Zrotation Yrotation Xrotation
										JOINT mixamorig:RightHandIndex3
										{
											OFFSET	-1.7590	-1.7055	0.9784
											CHANNELS 3 Zrotation Yrotation Xrotation
											End Site
											{
												OFFSET -2.1656 -2.6293 1.3206
											}
										}
									}
								}
								JOINT mixamorig:RightHandMiddle1
								{
									OFFSET	-10.8050	-6.3490	7.3536
									CHANNELS 3 Zrotation Yrotation Xrotation
									JOINT mixamorig:RightHandMiddle2
									{
										OFFSET	-2.3752	-1.6487	1.1901
										CHANNELS 3 Zrotation Yrotation Xrotation
										JOINT mixamorig:RightHandMiddle3
										{
											OFFSET	-1.3712	-2.2392	0.4981
											CHANNELS 3 Zrotation Yrotation Xrotation
											End Site
											{
												OFFSET -1.5574 -2.6423 0.6323
											}
										}
									}
								}
								JOINT mixamorig:RightHandRing1
								{
									OFFSET	-10.9108	-6.1334	3.9079
									CHANNELS 3 Zrotation Yrotation Xrotation
									JOINT mixamorig:RightHandRing2
									{
										OFFSET	-2.1215	-1.2548	0.4888
										CHANNELS 3 Zrotation Yrotation Xrotation
										JOINT mixamorig:RightHandRing3
										{
											OFFSET	-1.1529	-1.8295	0.3881
											CHANNELS 3 Zrotation Yrotation Xrotation
											End Site
											{
												OFFSET -1.1314 -2.8340 0.3221
											}
										}
									}
								}
								JOINT mixamorig:RightHandPinky1
								{
									OFFSET	-11.0147	-6.9107	1.0680
									CHANNELS 3 Zrotation Yrotation Xrotation
									JOINT mixamorig:RightHandPinky2
									{
										OFFSET	-0.9868	-1.3546	0.1104
										CHANNELS 3 Zrotation Yrotation Xrotation
										JOINT mixamorig:RightHandPinky3
										{
											OFFSET	-0.2187	-1.3359	0.1675
											CHANNELS 3 Zrotation Yrotation Xrotation
											End Site
											{
												OFFSET -0.5717 -1.4745 0.5311
											}
										}
									}
								}
							}
						}
					}
				}
			}
		}
	}
	JOINT mixamorig:LeftUpLeg
	{
		OFFSET	9.6182	-5.2725	-1.0109
		CHANNELS 3 Zrotation Yrotation Xrotation
		JOINT mixamorig:LeftLeg
		{
			OFFSET	1.3853	-43.3265	-1.1856
			CHANNELS 3 Zrotation Yrotation Xrotation
			JOINT mixamorig:LeftFoot
			{
				OFFSET	1.1958	-44.1070	-5.7230
				CHANNELS 3 Zrotation Yrotation Xrotation
				JOINT mixamorig:LeftToeBase
				{
					OFFSET	2.5995	-11.8143	15.8139
					CHANNELS 3 Zrotation Yrotation Xrotation
					End Site
					{
						OFFSET 1.2230 0.0445 7.9736
					}
				}
			}
		}
	}
	JOINT mixamorig:RightUpLeg
	{
		OFFSET	-9.9411	-5.2725	-1.2117
		CHANNELS 3 Zrotation Yrotation Xrotation
		JOINT mixamorig:RightLeg
		{
			OFFSET	-1.3852	-43.3265	-0.5841
			CHANNELS 3 Zrotation Yrotation Xrotation
			JOINT mixamorig:RightFoot
			{
				OFFSET	-1.1958	-44.1069	-6.3865
				CHANNELS 3 Zrotation Yrotation Xrotation
				JOINT mixamorig:RightToeBase
				{
					OFFSET	-2.5995	-11.8146	15.9998
					CHANNELS 3 Zrotation Yrotation Xrotation
					End Site
					{
						OFFSET -1.2231 0.0444 7.9271
					}
				}
			}
		}
	}
}
MOTION
Frames: 4
Frame Time: 0.0333333
10.2953 97.3953 7.3269 -4.0117 8.1723 1.7595 -3.5999 3.0916 1.4575 -5.3312 5.7324 3.1736 -5.3408 5.6959 3.2141 -7.1679 -3.4714 -2.2021 10.5036 -28.3156 1.7560 2.2623 -3.3498 1.0068 -1.4955 -22.6554 -14.8471 60.9311 -56.7896 -103.0934 12.1727 16.8542 -3.3476 -9.7031 -3.9280 -1.2793 11.1390 6.6848 -10.2064 -6.4546 0.2498 -1.5369 -44.9403 4.1788 27.3115 -58.1316 3.2993 28.6558 -36.4226 6.2921 21.2610 -58.6930 -2.1273 24.6895 -40.3340 3.7239 14.5930 -26.4061 1.3563 9.1842 -62.3206 -3.9079 23.3388 -25.8672 3.4215 8.9825 -27.8597 4.7096 17.4738 -52.4697 -14.4121 12.2953 -31.7920 10.0466 15.9228 -52.9639 6.5139 23.0213 -20.1009 1.2121 -0.0241 -14.9552 20.7064 -55.4557 -18.1093 51.8533 -51.5619 -34.2799 0.1616 22.3270 9.0858 -4.0326 -5.6296 -11.2942 -7.2346 -7.6947 6.4486 6.7703 -10.3817 40.0171 2.8988 18.6303 31.2148 5.6504 13.4631 26.3347 -1.5789 13.5271 39.8158 7.5657 15.9267 22.6682 4.0693 5.4246 35.5526 -4.3554 13.0917 45.8273 13.7430 14.4754 3.5768 -2.8384 3.5584 21.4619 0.1455 4.7947 28.8952 13.7355 4.7840 2.9034 -4.5320 10.8623 40.3235 -4.0414 21.3840 4.9682 -0.4011 -37.5500 2.1431 -12.5346 41.0878 -7.8471 -16.9584 -7.1833 -0.0000 0.0000 -1.1400 -1.2948 -14.6843 -3.9573 -11.0027 -5.0637 43.5209 14.2609 -8.8325 0.5866 10.6739 2.9967 -25.0233 
10.8858 95.9396 7.6072 -4.4606 6.4709 1.6590 -4.0958 3.3351 2.2978 -5.8824 6.1679 4.5341 -5.8736 6.1278 4.5919 -7.0572 -3.5846 -1.7771 13.5399 -28.4440 -2.7729 1.2681 -5.2969 1.2938 -7.3381 -12.2197 -5.6207 70.6661 -54.6781 -114.8557 12.4597 15.4122 -9.8282 -10.0122 -3.9756 -1.1572 11.1425 6.7118 -10.1772 -6.0075 1.3991 -0.1514 -47.0612 5.7888 29.3968 -62.9534 5.6686 30.9299 -39.2851 7.0596 22.5638 -60.9256 -0.3940 26.2338 -42.1609 4.1672 15.1884 -28.7484 1.7325 10.0136 -65.0661 -2.5536 24.4780 -28.4531 3.8545 9.6799 -29.0745 4.9086 17.8334 -54.3902 -13.7087 13.1682 -33.0899 10.3379 16.0531 -54.5325 6.8184 23.3563 -15.8305 3.3141 0.0258 -7.2982 15.2761 -46.9751 -52.5738 57.5769 -93.1191 -33.6280 3.7501 24.9986 8.7444 -3.9941 -5.9753 -11.2942 -7.2346 -7.6947 6.4396 6.7495 -10.3574 40.9283 4.2087 17.6852 28.6435 6.0182 11.9666 25.6886 -1.4880 13.2224 40.1154 8.4913 15.3267 17.5867 4.4341 3.2317 35.2395 -4.2902 12.9975 45.1996 13.8061 14.2413 -3.0129 -2.7026 1.9463 20.0344 0.2570 4.3900 28.5590 13.4883 5.0226 -4.1770 -3.8028 9.0133 39.5166 -3.9098 21.1352 5.6717 -1.1623 -39.5059 0.8981 -12.3951 46.6202 -6.8741 -14.4276 -10.4581 -0.0000 0.0000 -1.1885 -2.6978 -14.0394 -5.8213 -11.6813 -3.8767 47.5584 12.9379 -2.4941 2.0691 10.6071 3.2067 -29.0072 
11.6442 94.3513 7.8109 -4.9511 2.6802 1.5636 -4.6056 3.7045 3.0451 -6.4561 6.8687 5.6939 -6.4234 6.8261 5.7750 -6.4789 -3.8012 -1.6129 16.5442 -28.1322 -7.5092 0.3658 -7.0600 1.5914 -12.7598 0.9501 1.8562 67.9140 -55.4209 -111.4992 10.8602 12.8779 -13.7154 -10.1114 -4.0017 -1.1387 11.1600 6.8448 -10.0331 -5.7141 2.0908 0.7054 -49.1078 6.8096 30.7986 -66.1518 7.3636 32.3478 -42.2500 7.9257 23.8791 -62.4979 0.8805 27.3292 -44.8346 4.8513 16.0362 -30.8018 2.0906 10.7292 -68.7382 -0.7060 25.8637 -31.0721 4.3252 10.3669 -29.9684 5.0599 18.0954 -56.4363 -12.9178 14.0811 -35.0492 10.7827 16.2371 -55.3023 6.9712 23.5177 -12.2780 3.1465 0.2431 -1.4697 13.3582 -42.0181 -73.9197 53.5947 -118.8368 -31.9714 5.2249 24.9433 9.0404 -4.0021 -5.7278 -11.2942 -7.2346 -7.6947 6.4982 6.8859 -10.5168 41.4954 4.8494 17.2712 25.4531 6.3796 10.0963 24.8622 -1.3768 12.8316 40.4066 9.0309 15.0223 12.7023 4.6004 1.1054 34.7814 -4.1956 12.8591 44.7018 13.3420 14.3782 -8.8122 -2.7367 0.5230 18.9500 0.3349 4.0809 28.2668 13.1482 5.4134 -8.6640 -3.4613 7.8033 39.0285 -3.8320 20.9839 6.3205 -0.8309 -40.9545 -0.3107 -12.1638 52.2409 -6.2788 -10.9477 -14.0151 -0.0000 -0.0000 -1.0891 -4.5187 -14.1179 -7.8958 -9.9554 -1.0533 51.3050 12.5814 -0.8130 0.9823 10.4559 3.6286 -29.5662 
12.5337 92.7652 7.9011 -5.4774 -2.6434 1.4113 -5.0685 3.9074 3.6268 -6.9731 7.2622 6.5097 -6.9131 7.2192 6.6150 -5.7160 -3.9118 -1.6825 18.1124 -27.0079 -11.0607 0.5912 -7.4476 1.6024 -18.6242 13.7732 4.6276 47.1734 -57.7049 -86.7703 4.9936 7.7623 -15.9082 -9.9524 -4.0389 -1.3170 11.1644 6.8780 -9.9971 -5.5019 2.5645 1.3031 -51.1655 7.5635 31.8515 -67.5728 8.1467 32.9526 -44.2305 8.5438 24.7367 -64.3709 1.9855 28.2592 -47.7549 5.6449 16.9280 -31.9466 2.3017 11.1231 -72.1339 1.0840 27.0391 -32.7891 4.6511 10.8061 -30.3882 5.1324 18.2177 -58.3628 -12.1543 14.9012 -36.9232 11.2134 16.3986 -55.4904 7.0088 23.5569 -10.2867 2.1423 0.3735 1.2654 14.6864 -40.2895 -79.6818 51.1700 -126.1045 -31.9233 5.3393 23.1043 10.4331 -3.9952 -4.6796 -11.2942 -7.2346 -7.6947 6.6041 7.1360 -10.8084 41.7257 4.8318 17.3544 22.1231 6.6448 8.1320 23.9468 -1.2604 12.3972 40.5731 9.0199 15.0865 9.0015 4.6059 -0.5097 34.3637 -4.1104 12.7323 44.3110 12.3814 14.8698 -12.8957 -2.8470 -0.4740 18.2765 0.3803 3.8883 28.0529 12.7952 5.8550 -10.5179 -3.3481 7.2967 38.8007 -3.7961 20.9131 6.8799 0.2967 -41.6975 -1.4526 -11.8826 57.4799 -6.2126 -6.8810 -17.5573 -0.0000 -0.0000 -0.9109 -6.4289 -14.4031 -9.9910 -8.3012 1.3634 54.7894 12.5900 -0.5283 -2.0036 8.7412 3.5336 -28.8763 
